HIERARCHY
ROOT Hips
{
	OFFSET 0.000000 0.000000 0.000000
	CHANNELS 6 Xposition Yposition Zposition Xrotation Yrotation Zrotation
	JOINT LeftUpLeg_virtual
	{
		OFFSET 0.000000 0.000000 0.000000
		CHANNELS 3 Xrotation Yrotation Zrotation
		JOINT LeftUpLeg
		{
			OFFSET 15.427100 -6.655098 0.678600
			CHANNELS 3 Xrotation Yrotation Zrotation
			JOINT LeftLeg
			{
				OFFSET 4.081073 -39.591068 13.024000
				CHANNELS 3 Xrotation Yrotation Zrotation
				JOINT LeftFoot
				{
					OFFSET -4.081074 -37.707932 -15.979700
					CHANNELS 3 Xrotation Yrotation Zrotation
					JOINT LeftToeBase
					{
						OFFSET 5.346399 -15.068900 20.645000
						CHANNELS 3 Xrotation Yrotation Zrotation
						JOINT LeftToe_End
						{
							OFFSET 2.754700 0.931300 11.300900
							CHANNELS 3 Xrotation Yrotation Zrotation
							End Site
							{
								OFFSET 0 0 0
							}
						}
					}
				}
			}
		}
	}
	JOINT RightUpLeg_virtual
	{
		OFFSET 0.000000 0.000000 0.000000
		CHANNELS 3 Xrotation Yrotation Zrotation
		JOINT RightUpLeg
		{
			OFFSET -15.569500 -6.655098 0.678600
			CHANNELS 3 Xrotation Yrotation Zrotation
			JOINT RightLeg
			{
				OFFSET -4.081825 -39.591045 13.023800
				CHANNELS 3 Xrotation Yrotation Zrotation
				JOINT RightFoot
				{
					OFFSET 4.081824 -37.707954 -15.979600
					CHANNELS 3 Xrotation Yrotation Zrotation
					JOINT RightToeBase
					{
						OFFSET -5.346400 -15.068900 20.645000
						CHANNELS 3 Xrotation Yrotation Zrotation
						JOINT RightToe_End
						{
							OFFSET -2.754700 0.931300 11.300900
							CHANNELS 3 Xrotation Yrotation Zrotation
							End Site
							{
								OFFSET 0 0 0
							}
						}
					}
				}
			}
		}
	}
	JOINT Spine_virtual
	{
		OFFSET 0.000000 0.000000 0.000000
		CHANNELS 3 Xrotation Yrotation Zrotation
		JOINT Spine
		{
			OFFSET -0.279200 12.230698 -2.892100
			CHANNELS 3 Xrotation Yrotation Zrotation
			JOINT Spine1
			{
				OFFSET -0.232667 10.192268 -1.242267
				CHANNELS 3 Xrotation Yrotation Zrotation
				JOINT Spine1_split
				{
					OFFSET -0.232667 10.192268 -1.242267
					CHANNELS 3 Xrotation Yrotation Zrotation
					JOINT Spine2
					{
						OFFSET -0.232667 10.192268 -1.242267
						CHANNELS 3 Xrotation Yrotation Zrotation
						JOINT Neck_virtual
						{
							OFFSET 0.000000 0.000000 0.000000
							CHANNELS 3 Xrotation Yrotation Zrotation
							JOINT Neck
							{
								OFFSET -0.418800 17.814194 8.416900
								CHANNELS 3 Xrotation Yrotation Zrotation
								JOINT Head
								{
									OFFSET 0.000000 7.031097 3.806800
									CHANNELS 3 Xrotation Yrotation Zrotation
									JOINT HeadTop_End
									{
										OFFSET 0.000000 24.646606 12.978600
										CHANNELS 3 Xrotation Yrotation Zrotation
										End Site
										{
											OFFSET 0 0 0
										}
									}
								}
							}
						}
						JOINT LeftShoulder_virtual
						{
							OFFSET 0.000000 0.000000 0.000000
							CHANNELS 3 Xrotation Yrotation Zrotation
							JOINT LeftShoulder
							{
								OFFSET 8.476499 7.247704 -3.868750
								CHANNELS 3 Xrotation Yrotation Zrotation
								JOINT LeftShoulder_split
								{
									OFFSET 8.476499 7.247704 -3.868750
									CHANNELS 3 Xrotation Yrotation Zrotation
									JOINT LeftArm
									{
										OFFSET 9.308998 -2.777710 0.208600
										CHANNELS 3 Xrotation Yrotation Zrotation
										JOINT LeftForeArm
										{
											OFFSET 29.972298 0.000000 0.000000
											CHANNELS 3 Xrotation Yrotation Zrotation
											JOINT LeftHand
											{
												OFFSET 26.026505 0.000000 0.000000
												CHANNELS 3 Xrotation Yrotation Zrotation
												End Site
												{
													OFFSET 0 0 0
												}
											}
										}
									}
								}
							}
						}
						JOINT RightShoulder_virtual
						{
							OFFSET 0.000000 0.000000 0.000000
							CHANNELS 3 Xrotation Yrotation Zrotation
							JOINT RightShoulder
							{
								OFFSET -7.570500 7.247704 -3.868750
								CHANNELS 3 Xrotation Yrotation Zrotation
								JOINT RightShoulder_split
								{
									OFFSET -7.570500 7.247704 -3.868750
									CHANNELS 3 Xrotation Yrotation Zrotation
									JOINT RightArm
									{
										OFFSET -9.308998 -2.777710 0.208500
										CHANNELS 3 Xrotation Yrotation Zrotation
										JOINT RightForeArm
										{
											OFFSET -29.972300 0.000000 0.000000
											CHANNELS 3 Xrotation Yrotation Zrotation
											JOINT RightHand
											{
												OFFSET -26.026505 0.000000 0.000000
												CHANNELS 3 Xrotation Yrotation Zrotation
												End Site
												{
													OFFSET 0 0 0
												}
											}
										}
									}
								}
							}
						}
					}
				}
			}
		}
	}
}
MOTION
Frames: 6
Frame Time: 0.03333333
1.485517 86.878944 -4.301723 0.000000 0.000000 0.000000 -6.498263 -26.077271 1.881638 -12.537383 13.148659 10.523220 29.792869 8.558604 1.916605 -6.346420 19.495795 -12.622746 -1.667019 0.004282 -0.366910 0.000000 0.000000 0.000000 -5.672994 -25.387670 2.213841 -4.890938 -35.993096 -13.841407 33.519017 6.285501 -6.099783 -25.391355 -23.289086 5.745285 -5.831205 0.627819 0.366828 0.000000 0.000000 0.000000 -6.638143 -27.697136 1.301690 5.223536 -2.750668 -1.286620 1.243594 -2.749223 0.386029 0.704760 0.827906 0.004432 0.000000 0.000000 0.000000 0.833340 -2.425188 0.256572 1.974422 5.425970 -0.322761 0.122399 -19.175838 -3.431128 0.000000 0.000000 0.000000 1.339037 -2.602076 0.102462 -0.063472 -16.134370 -18.461947 -1.832718 -1.533127 -1.975165 16.509336 7.011346 -35.613976 171.420372 -82.179702 170.374383 0.000000 0.000000 0.000000 0.866850 -2.484510 0.273821 0.883930 15.314840 11.386506 2.534541 2.095320 0.105600 3.484169 28.161956 43.172721 -171.880973 83.854581 171.586127 0.000000 0.000000 0.000000 
0.825425 87.065163 -4.073044 0.000000 0.000000 0.000000 -6.704684 -27.801757 1.614754 -11.850420 13.198040 10.810173 30.340219 9.085290 1.788110 -6.803105 20.403626 -11.847084 -1.900849 0.051094 -0.713894 0.000000 0.000000 0.000000 -5.866157 -27.045901 1.957952 -4.377508 -35.582144 -13.353921 32.744852 6.589935 -6.108541 -25.231696 -22.603090 5.536507 -5.765912 0.622954 0.404313 0.000000 0.000000 0.000000 -6.828941 -29.201060 1.110143 5.261942 -2.655553 -1.218420 1.235980 -2.623726 0.364422 0.661002 0.775276 0.003582 0.000000 0.000000 0.000000 0.813456 -2.314810 0.236368 1.951511 5.477068 -0.300288 0.200659 -19.112584 -3.215839 0.000000 0.000000 0.000000 1.303155 -2.481273 0.079558 -0.072834 -16.154359 -18.409675 -1.744358 -1.522685 -2.075959 15.676292 6.730226 -35.757085 171.520107 -82.502415 170.477096 0.000000 0.000000 0.000000 0.845132 -2.370874 0.230981 0.861440 15.397850 11.315901 2.558034 2.140751 0.108465 3.988352 27.422605 42.474269 -172.877552 83.037820 172.571519 0.000000 0.000000 0.000000 
0.189342 87.268845 -3.832443 0.000000 0.000000 0.000000 -6.915972 -29.598328 1.356140 -11.552106 13.235356 10.989540 30.952269 9.469169 1.648548 -7.298175 20.887227 -10.834001 -2.208635 0.128155 -1.098159 0.000000 0.000000 0.000000 -6.100027 -28.652411 1.707784 -3.812156 -35.035636 -12.923358 31.959364 6.684188 -6.051820 -25.082888 -21.832119 5.367168 -5.537623 0.608816 0.417642 0.000000 0.000000 0.000000 -7.004235 -30.599166 0.924712 5.299779 -2.498050 -1.196809 1.218656 -2.485885 0.336353 0.619104 0.678009 0.001113 0.000000 0.000000 0.000000 0.812575 -2.183451 0.212218 1.919559 5.515006 -0.306167 0.251794 -18.903377 -3.030028 0.000000 0.000000 0.000000 1.258108 -2.340527 0.047721 -0.084879 -16.189447 -18.354086 -1.656083 -1.515471 -2.153571 14.877557 6.410519 -35.878328 171.779626 -82.789365 170.737818 0.000000 0.000000 0.000000 0.816304 -2.237592 0.191438 0.846912 15.498848 11.272632 2.529765 2.197985 0.081308 4.534188 26.522931 41.866246 -173.746721 82.171028 173.438912 0.000000 0.000000 0.000000 
-0.421924 87.483002 -3.551056 0.000000 0.000000 0.000000 -7.132454 -31.400026 1.087872 -11.860837 13.205956 11.112029 31.590848 9.574887 1.513036 -7.482186 20.701318 -9.863381 -2.602040 0.215880 -1.459802 0.000000 0.000000 0.000000 -6.330784 -30.166292 1.456709 -3.224882 -34.419762 -12.540652 31.152469 6.571212 -5.939503 -24.900527 -21.002792 5.294942 -5.249204 0.595272 0.402703 0.000000 0.000000 0.000000 -7.162019 -31.900296 0.738020 5.343816 -2.280797 -1.207037 1.197307 -2.342716 0.301720 0.605138 0.555841 -0.004118 0.000000 0.000000 0.000000 0.834291 -2.037805 0.182232 1.868171 5.538417 -0.326243 0.250768 -18.566766 -2.869790 0.000000 0.000000 0.000000 1.208228 -2.187919 0.007354 -0.095540 -16.221932 -18.300360 -1.572223 -1.506532 -2.203709 14.158579 6.068373 -35.977123 172.130671 -83.040156 171.091662 0.000000 0.000000 0.000000 0.786395 -2.093558 0.154656 0.839243 15.591860 11.250034 2.473592 2.248205 0.031633 5.093468 25.584640 41.331834 -174.517808 81.275891 174.217867 0.000000 0.000000 0.000000 
-0.999436 87.712685 -3.254993 0.000000 0.000000 0.000000 -7.295901 -33.096126 0.832102 -12.863441 13.077380 11.163493 32.184295 9.353416 1.404344 -7.100161 19.696307 -9.084304 -3.006480 0.298334 -1.749868 0.000000 0.000000 0.000000 -6.523838 -31.590281 1.209650 -2.615692 -33.755690 -12.176133 30.307366 6.277528 -5.806582 -24.641127 -20.128670 5.356541 -4.984658 0.589024 0.377688 0.000000 0.000000 0.000000 -7.263243 -33.131902 0.547048 5.385544 -2.004287 -1.227168 1.174735 -2.195711 0.263783 0.597672 0.425975 -0.007029 0.000000 0.000000 0.000000 0.874442 -1.887413 0.145890 1.799154 5.551318 -0.347084 0.189953 -18.127414 -2.722803 0.000000 0.000000 0.000000 1.166572 -2.029949 -0.037670 -0.102674 -16.227683 -18.254084 -1.512027 -1.504470 -2.248587 13.553878 5.715900 -36.049817 172.498162 -83.256167 171.471175 0.000000 0.000000 0.000000 0.757488 -1.947908 0.119298 0.835481 15.653549 11.246497 2.407038 2.277164 -0.029170 5.628620 24.715758 40.859404 -175.189913 80.406872 174.912675 0.000000 0.000000 0.000000 
-1.554687 87.961571 -2.941551 0.000000 0.000000 0.000000 -7.395714 -34.622372 0.594686 -14.500661 12.859910 11.139100 32.573111 8.821054 1.339780 -6.059066 17.855972 -8.553394 -3.325305 0.355501 -1.913155 0.000000 0.000000 0.000000 -6.654123 -32.922919 0.982792 -1.985092 -33.025590 -11.819198 29.429598 5.819245 -5.695409 -24.295748 -19.226030 5.538672 -4.801652 0.585626 0.370031 0.000000 0.000000 0.000000 -7.340040 -34.316626 0.338010 5.423438 -1.676035 -1.238528 1.153807 -2.048092 0.224582 0.597842 0.302028 0.000236 0.000000 0.000000 0.000000 0.927296 -1.736637 0.103374 1.712465 5.549453 -0.354897 0.081552 -17.607015 -2.575278 0.000000 0.000000 0.000000 1.136027 -1.871314 -0.083336 -0.105953 -16.196566 -18.225499 -1.457792 -1.512101 -2.281178 13.068624 5.351291 -36.097792 172.763611 -83.431553 171.762332 0.000000 0.000000 0.000000 0.732892 -1.805474 0.085869 0.836815 15.668768 11.259011 2.335557 2.294365 -0.095670 6.097972 23.987957 40.435044 -175.748349 79.635470 175.508158 0.000000 0.000000 0.000000 
